<svg xmlns="http://www.w3.org/2000/svg" viewBox="0 0 262.32 208.93"><defs><style>.cls-1{fill:#a69981;}</style></defs><g id="Capa_2" data-name="Capa 2"><g id="Capa_1-2" data-name="Capa 1"><path class="cls-1" d="M226.86,191a19.62,19.62,0,0,1,5.52-18.39"/><path class="cls-1" d="M239.4,208.93c-5.08-6.15-10.12-12.41-13.91-19.43-8.71-16.12-10.3-35.32-8-53.49s8.33-35.65,14.12-53,11.4-35.82,6.88-53.49a84.42,84.42,0,0,0-4.32-12C231,9.8,226.18,1.29,218,0c9.47,2.59,18.65,6.67,26.23,12.91s13.49,14.75,15.62,24.33a21.13,21.13,0,0,1,0,10.48c-2.18,7.47-10.08,18.07-14.43,24.52,7.42-1.87,14.15-13.65,16.9-20.78-.67,24.09-6.05,49.66-23.18,66.62-6.25,6.18-14.47,12.19-14.73,21,3.13-8.87,16.3-18.42,21.78-24.87,1.64,14.29-17.43,46.67-21.32,60.52C220.44,190.52,231.07,195.48,239.4,208.93Z"/><path class="cls-1" d="M221.44,107.58c3-8.51,7.06-24.12,11.25-35.39s8-24.14,5.55-36.36a79.32,79.32,0,0,0-6.1-17.22,53.83,53.83,0,0,0-8.86-14.12,34.85,34.85,0,0,0-3-2.87c2.31,5.54,7.35,36,7.35,36,1,4.64-1.57,24.53-1.57,24.53-.62,6-5.58,11-4,22.25a50.89,50.89,0,0,1-1.51-7.51c-.69-4.09.31-8.07.08-11.54-7.75,12.89-15.65,26-19.87,40.55-4.13,14.21-4.46,29.57,2,43.16,3.51,7.4,19.81,38.89,24.47,45.59l-5.52-10.55S205.25,154,221.44,107.58Z"/><path class="cls-1" d="M21.39,69.06,6.17,26.77H0V22.44H21v4.24H11.46l12.72,36.7L37.47,22.44H41.9L55.29,63.19,68.2,26.68H58.57V22.44H79.09v4.33H72.92L57.8,69.06H52.41L39.5,30.43,26.78,69.06Z"/><path class="cls-1" d="M104.59,21.64a13.59,13.59,0,0,1,4.81.77V27a11.13,11.13,0,0,0-2.07-.44,22,22,0,0,0-2.46-.14,15.93,15.93,0,0,0-11.46,4.43q-4.62,4.43-4.62,12.52V64.7h11.56V69H76.07V64.7h7.51V26.75H76.07V22.41H88.59v9.16a14.91,14.91,0,0,1,5.88-7.08A17.72,17.72,0,0,1,104.59,21.64Z"/><path class="cls-1" d="M109.83,69.06V64.73h7.52v-38h-7.52V22.44h12.72V64.73h7.51v4.33Zm8.58-52.22a4.13,4.13,0,0,1-3.13-1.16,4.26,4.26,0,0,1-1.11-3.08,4.25,4.25,0,0,1,1.11-3.08,4.8,4.8,0,0,1,6.26,0,4.25,4.25,0,0,1,1.11,3.08,4.26,4.26,0,0,1-1.11,3.08A4.13,4.13,0,0,1,118.41,16.84Z"/><path class="cls-1" d="M151.89,62.7l2,3.56c-2.57,2.45-6,3.66-10.31,3.66q-6.93,0-10.64-3.85T129.26,54.7V26.77H121V22.43h8.29V9.62l5.2-1.35V22.43h15.8v4.34h-15.8V54.51q0,10.89,9.54,10.89a12.64,12.64,0,0,0,4.53-.82A11.69,11.69,0,0,0,151.89,62.7Z"/><path class="cls-1" d="M170.71,69.64a26.69,26.69,0,0,1-13.57-3.18,20.61,20.61,0,0,1-8.27-8.76,28.55,28.55,0,0,1-2.79-12.91,28.45,28.45,0,0,1,2.84-13.1,20.8,20.8,0,0,1,8-8.67,22.83,22.83,0,0,1,12-3.09,21.3,21.3,0,0,1,10.78,2.7,19.13,19.13,0,0,1,7.41,7.71,25.16,25.16,0,0,1,2.69,12c0,.45,0,1,0,1.64s-.09,1.22-.15,1.73h-38.3a21.06,21.06,0,0,0,5.25,13.87q4.95,5.49,14.48,5.49a21.28,21.28,0,0,0,9.43-1.88,14.46,14.46,0,0,0,5.77-4.67l3.18,2.8a18.34,18.34,0,0,1-7.32,5.82A25.38,25.38,0,0,1,170.71,69.64Zm-1.83-45.27a16.21,16.21,0,0,0-12.12,4.81,19.53,19.53,0,0,0-5.39,12.33h33.49a18.86,18.86,0,0,0-4.43-12.28Q176.2,24.37,168.88,24.37Z"/><path class="cls-1" d="M146,134.38h7.61v4.34H131.58v-4.34h9.24v-23.5q0-7.71-3.66-11.7t-9.92-4q-7.89,0-12,4.77a17.49,17.49,0,0,0-4.14,11.89v22.54h9.25v4.34H96.61v-4.34h9.25v-23.5q0-7.6-3.66-11.65a12.72,12.72,0,0,0-9.92-4q-8,0-12.09,4.82t-4.1,12.42v22h9.25v4.34h-22v-4.34h7.51V96.43H63.38V92.1H75.9V100a16.09,16.09,0,0,1,6.21-6.84,20,20,0,0,1,10.74-2.61q6.75,0,10.89,2.94a15.83,15.83,0,0,1,5.88,8.24,17.79,17.79,0,0,1,6.4-8q4.49-3.18,11.51-3.18,8.78,0,13.63,5T146,110.21Z"/><path class="cls-1" d="M171,139.49a26.73,26.73,0,0,1-13.58-3.18,20.54,20.54,0,0,1-8.28-8.77,28.35,28.35,0,0,1-2.8-12.9,28.58,28.58,0,0,1,2.84-13.1,20.85,20.85,0,0,1,8-8.67,22.84,22.84,0,0,1,12-3.09A21.34,21.34,0,0,1,180,92.48a19.08,19.08,0,0,1,7.42,7.71,25,25,0,0,1,2.7,12c0,.45,0,1-.05,1.64s-.08,1.22-.15,1.73H151.57a21.11,21.11,0,0,0,5.25,13.87q5,5.49,14.5,5.49a21.29,21.29,0,0,0,9.44-1.88,14.42,14.42,0,0,0,5.78-4.67l3.18,2.8A18.34,18.34,0,0,1,182.4,137,25.46,25.46,0,0,1,171,139.49ZM169.2,94.22A16.27,16.27,0,0,0,157.06,99a19.53,19.53,0,0,0-5.39,12.33h33.52a18.79,18.79,0,0,0-4.43-12.28Q176.53,94.22,169.2,94.22Z"/><path class="cls-1" d="M182.59,204.4h7.51v4.33H167.46V204.4h9.92V180.6q0-8.08-3.9-11.75t-10.74-3.66q-8,0-12.28,4.53t-4.29,12.71v22h9.93v4.33H133.46V204.4H141v-38h-7.51v-4.33H146v8a15.64,15.64,0,0,1,6.41-6.94q4.38-2.61,11.22-2.6,9.24,0,14.11,4.81t4.87,14.74Z"/><path class="cls-1" d="M111.88,208.73V204.4h7.51v-38h-7.51v-4.33H124.6V204.4h7.51v4.33Zm8.58-52.22a4.12,4.12,0,0,1-3.13-1.16,4.83,4.83,0,0,1,0-6.16,4.8,4.8,0,0,1,6.26,0,4.86,4.86,0,0,1,0,6.16A4.15,4.15,0,0,1,120.46,156.51Z"/></g></g></svg>